<?xml version="1.0" encoding="UTF-8"?>
<svg id="Layer_1" xmlns="http://www.w3.org/2000/svg" version="1.1" viewBox="0 0 982.7 393.3">
  <!-- Generator: Adobe Illustrator 29.6.1, SVG Export Plug-In . SVG Version: 2.1.1 Build 9)  -->
  <defs>
    <style>
      .st0 {
        fill: #bfb7ac;
      }

      .st1 {
        fill: #ff5020;
      }
    </style>
  </defs>
  <g>
    <path class="st0" d="M4.2,58h146.1c39.5,0,68.5,10.9,88.5,29.9,20.9,19.5,32.7,47.2,32.7,79.9,0,62.2-43.1,106.2-109.8,106.2h-75.8v108.5H4.2V58h0ZM145.4,210.5c29,0,45.4-17.2,45.4-43.1s-16.8-41.8-45.4-41.8h-59.4v84.9h59.4Z"/>
    <path class="st0" d="M282,58h155.2c64.4,0,113.5,33.1,113.5,93.5s-18.6,65.4-56.3,78.5v1.4c28.1,9.5,42.7,27.2,47.2,59.5,6.8,42.7,2.3,83.5,13.6,87.6v4.1h-78c-8.6-5-7.3-43.1-12.2-75.3-4.1-30-19.5-46.3-54-46.3h-48.6v121.6h-80.3V58h0ZM422.6,201.4c31.8,0,48.1-15,48.1-39.5s-15.4-40.4-46.3-40.4h-62.2v79.9h60.4Z"/>
    <path class="st0" d="M552.9,280.3h80.8c3.6,32.7,25,46.3,63.5,46.3s52.2-9.5,52.2-34-26.3-31.3-70.8-42.2c-56.3-13.2-115.7-30.4-115.7-98.5s56.3-99.8,128.9-99.8,124.8,31.8,128,99.8h-78.5c-3.2-25-22.2-39-52.2-39s-46.7,12.2-46.7,30.4,25,28.1,73.5,39c60.4,14.1,114.8,32.7,114.8,102.1s-58.1,105.7-133,105.7-143-38.1-144.8-109.8h0Z"/>
  </g>
  <g>
    <path class="st1" fill="#ff5020" d="M832.9,77.4h73.5v74.6h-39.7v-37.6h-33.8v-37h0Z"/>
    <path class="st1" fill="#ff5020" d="M979.8,77.6h-73.5V3h39.7v37.7h33.8v37h0Z"/>
  </g>
</svg>